<?xml version="1.0"?>
<svg width="16" height="16" viewBox="0 0 24 24" xmlns="http://www.w3.org/2000/svg">
  <g transform="matrix(1, 0, 0, 1, 27.009001, -39.238998)">
    <path fill="#4285F4" d="M -3.264 51.509 C -3.264 50.719 -3.334 49.969 -3.454 49.239 L -14.754 49.239 L -14.754 53.749 L -8.28426 53.749 C -8.52426 55.229 -9.21652 56.479 -10.2542 57.329 L -10.2542 60.524 L -6.98426 62.724 C -4.56426 60.560 3.17 51.509 3.17 51.509 C 3.17 51.509 -3.264 51.509 -3.264 51.509"/>
    <path fill="#34A853" d="M -14.754 63.239 C -11.514 63.239 -8.80426 62.159 -6.98426 60.524 L -10.2542 57.329 C -11.2842 58.049 -12.734 58.629 -14.754 58.629 C -17.884 58.629 -20.5543 56.479 -21.4843 53.529 L -24.7543 53.529 L -24.7543 56.819 C -22.9143 61.169 -19.134 63.239 -14.754 63.239"/>
    <path fill="#FBBC05" d="M -21.4843 53.529 C -21.7343 52.809 -21.864 52.039 -21.864 51.239 C -21.864 50.439 -21.7243 49.669 -21.4843 48.949 L -21.4843 45.659 L -24.7543 45.659 C -25.5543 47.089 -25.9843 48.619 -25.9843 50.239 C -25.9843 51.859 -25.5543 53.389 -24.7543 54.819 L -21.4843 53.529"/>
    <path fill="#EA4335" d="M -14.754 41.849 C -12.984 41.849 -11.4043 42.389 -10.1543 43.419 L -6.98426 40.199 C -8.80426 38.339 -11.514 37.239 -14.754 37.239 C -19.134 37.239 -22.9143 39.309 -24.7543 43.659 L -21.4843 45.949 C -20.5543 42.999 -17.884 40.849 -14.754 40.849"/>
  </g>
</svg>
